<?xml version="1.0" encoding="UTF-8"?>
<svg id="g" data-name="Layer 8" xmlns="http://www.w3.org/2000/svg" viewBox="570 320 800 800">
  <defs>
    <style>
      .t {
        fill: #2c62ae;
      }

      .u {
        fill: #fff;
      }

      .v {
        fill: none;
        stroke: #fff;
        stroke-linecap: round;
        stroke-linejoin: round;
        stroke-width: 5px;
      }
    </style>
  </defs>
  <rect class="t" y="0" width="850" height="680"/>
  <g>
    <g>
      <path class="u" d="M268.57,324.52h-109.63v27.18h71.86l-71.86,108.7v24.88h109.63v-27.18h-72.32l72.32-108.71v-24.87Z"/>
      <path class="u" d="M375.2,357.69v18.19c-4.3-5.83-10.02-10.67-17.16-14.51-7.14-3.83-15.47-5.76-24.99-5.76-10.9,0-20.77,2.69-29.59,8.06-8.83,5.38-15.82,13.06-20.96,23.04-5.15,9.98-7.72,21.41-7.72,34.31s2.57,24.61,7.72,34.66c5.14,10.06,12.13,17.85,20.96,23.38,8.82,5.53,18.61,8.29,29.36,8.29,9.52,0,17.92-1.96,25.22-5.87,7.29-3.92,13.01-8.87,17.16-14.86v18.66h32.47v-127.59h-32.47ZM370.59,441.63c-3.07,5.61-7.22,9.91-12.44,12.9-5.22,2.99-10.82,4.49-16.81,4.49s-11.32-1.53-16.47-4.61c-5.14-3.06-9.29-7.48-12.43-13.24-3.15-5.76-4.72-12.47-4.72-20.15s1.57-14.31,4.72-19.92c3.14-5.6,7.25-9.86,12.32-12.78,5.07-2.92,10.59-4.38,16.58-4.38s11.59,1.5,16.81,4.49c5.22,3,9.37,7.3,12.44,12.9,3.07,5.61,4.61,12.32,4.61,20.15s-1.54,14.55-4.61,20.15Z"/>
    </g>
    <path class="v" d="M518.45,357.69v18.19c-4.15-5.99-9.83-10.86-17.05-14.62-7.21-3.76-15.58-5.65-25.1-5.65-10.9,0-20.77,2.69-29.59,8.06-8.83,5.38-15.82,13.06-20.96,23.04-5.15,9.98-7.72,21.41-7.72,34.31s2.57,24.61,7.72,34.66c5.14,10.06,12.17,17.85,21.07,23.38,8.9,5.53,18.73,8.29,29.48,8.29,9.36,0,17.69-2,24.99-5.99,7.29-3.99,13.01-8.98,17.16-14.97v19.81c0,11.36-2.92,19.84-8.75,25.45-5.84,5.6-13.44,8.4-22.81,8.4-6.44,0-12.1-1.12-17-3.38-.19-.08-.38-.17-.57-.27-8.63-4.06-18.86-6.05-30.63-6.05-4.55,0-8.9.32-13.04.96-5.9.91-11.38,2.47-16.44,4.68-8.6,3.77-15.28,9.18-20.03,16.24-4.76,7.06-7.14,15.36-7.14,24.87,0,10.14,2.34,18.24,7.02,24.3,4.68,6.07,10.29,10.59,16.81,13.59,6.53,2.99,15.01,6.03,25.45,9.1,7.68,2.15,13.71,4.11,18.08,5.87,4.38,1.77,8.02,4.18,10.94,7.25,2.92,3.08,4.38,6.99,4.38,11.75,0,5.84-2.15,10.56-6.45,14.16-4.3,3.61-10.21,5.42-17.73,5.42s-13.17-1.92-17.39-5.76c-4.23-3.84-6.57-9.06-7.03-15.66h-34.54c.15,9.82,2.84,18.35,8.06,25.56,5.22,7.22,12.32,12.75,21.3,16.58,8.98,3.84,19.08,5.76,30.29,5.76,11.82,0,22.03-2.19,30.63-6.56,8.59-4.38,15.12-10.25,19.57-17.62,4.45-7.37,6.68-15.35,6.68-23.95,0-9.98-2.38-18.04-7.14-24.19-4.76-6.14-10.44-10.74-17.04-13.81-6.6-3.07-15.13-6.14-25.56-9.22-7.68-2.3-13.63-4.33-17.85-6.1-4.23-1.76-7.76-4.07-10.6-6.91-2.84-2.84-4.26-6.41-4.26-10.71,0-6.14,1.88-10.82,5.64-14.05,3.77-3.22,8.79-4.83,15.09-4.83,5.28,0,10.02.75,13.73,2.72.1.05.19.1.28.15,10.35,5.47,22.83,8.21,37.42,8.21,2.48,0,4.89-.09,7.23-.28,10.43-.81,19.54-3.45,27.31-7.9,9.52-5.45,16.66-12.82,21.42-22.1,4.76-9.3,7.14-19.85,7.14-31.67v-128.51h-32.47ZM513.84,441.63c-3.07,5.61-7.22,9.91-12.44,12.9-5.22,2.99-10.82,4.49-16.81,4.49s-11.32-1.53-16.47-4.61c-5.14-3.06-9.29-7.48-12.43-13.24-3.15-5.76-4.72-12.47-4.72-20.15s1.57-14.31,4.72-19.92c3.14-5.6,7.25-9.86,12.32-12.78,5.07-2.92,10.59-4.38,16.58-4.38s11.59,1.5,16.81,4.49c5.22,3,9.37,7.3,12.44,12.9,3.07,5.61,4.61,12.32,4.61,20.15s-1.54,14.55-4.61,20.15Z"/>
    <g>
      <path class="u" d="M606.06,545.82v18.19c-4.3-5.83-10.02-10.67-17.16-14.51-7.14-3.83-15.47-5.75-24.99-5.75-10.9,0-20.77,2.68-29.59,8.06-8.83,5.37-15.82,13.05-20.96,23.03-5.15,9.98-7.72,21.42-7.72,34.31s2.57,24.61,7.72,34.66c5.14,10.06,12.13,17.85,20.96,23.38,8.82,5.53,18.61,8.29,29.36,8.29,9.52,0,17.93-1.96,25.22-5.87,7.29-3.92,13.01-8.87,17.16-14.86v18.66h32.47v-127.59h-32.47ZM601.45,629.76c-3.07,5.61-7.22,9.91-12.43,12.9-5.23,3-10.83,4.49-16.82,4.49s-11.32-1.53-16.46-4.6c-5.15-3.07-9.3-7.49-12.44-13.25-3.15-5.75-4.72-12.47-4.72-20.15s1.57-14.31,4.72-19.92c3.14-5.6,7.25-9.86,12.32-12.78,5.07-2.92,10.59-4.38,16.58-4.38s11.59,1.5,16.82,4.49c5.21,3,9.36,7.3,12.43,12.9,3.07,5.61,4.61,12.32,4.61,20.15s-1.54,14.55-4.61,20.15Z"/>
      <path class="u" d="M693.2,545.82v-5.3c0-7.21,1.53-12.21,4.6-14.97,3.07-2.76,8.52-4.07,16.35-3.91v-27.18c-17.96-.46-31.4,2.99-40.3,10.36-8.91,7.37-13.36,18.89-13.36,34.55v6.45h-14.51v26.48h14.51v101.11h32.71v-101.11h22.34v-26.48h-22.34Z"/>
      <path class="u" d="M842.06,606.85c0-12.44-2.65-23.45-7.95-33.05-5.3-9.59-12.74-17-22.34-22.22-9.6-5.22-20.46-7.83-32.59-7.83s-23.72,2.68-33.39,8.06c-9.67,5.37-17.2,13.05-22.57,23.03-5.38,9.98-8.06,21.57-8.06,34.77s2.72,24.57,8.17,34.55c5.45,9.98,13.05,17.7,22.8,23.14,9.75,5.46,20.77,8.18,33.05,8.18,15.2,0,28.02-3.95,38.46-11.86,10.44-7.91,17.51-18,21.19-30.28h-34.77c-5.07,10.28-13.59,15.42-25.57,15.42-8.29,0-15.28-2.6-20.96-7.83-5.68-5.21-8.9-12.43-9.67-21.64h93.28c.61-3.69.92-7.83.92-12.44ZM748.09,597.64c1.23-8.6,4.57-15.32,10.02-20.15,5.45-4.84,12.17-7.26,20.15-7.26,8.44,0,15.58,2.5,21.42,7.49,5.83,4.99,8.83,11.63,8.98,19.92h-60.57Z"/>
    </g>
  </g>
</svg>